<svg id="Capa_1" data-name="Capa 1" xmlns="http://www.w3.org/2000/svg" viewBox="0 0 389.13 487.72"><defs><style>.cls-1{fill:#2bf4a1;}</style></defs><title>marker-green</title><path class="cls-1" d="M236.93.12c-96.9,3.4-177.4,79-186.7,175.5a195.73,195.73,0,0,0,2.6,55.9h0s.3,2.1,1.3,6.1a195,195,0,0,0,13.1,38.6c19.5,46.2,64.6,123.5,165.8,207.6a16.9,16.9,0,0,0,21.6,0c101.2-84,146.3-161.3,165.9-207.7a186.75,186.75,0,0,0,13.1-38.6c.9-3.9,1.3-6.1,1.3-6.1h0a195.6,195.6,0,0,0,3.5-36.9C438.42,84.72,347.52-3.78,236.93.12Zm6.9,291.2a94.5,94.5,0,1,1,94.5-94.5A94.49,94.49,0,0,1,243.82,291.32Z" transform="translate(-49.3 0)"/></svg>